<?xml version="1.0" encoding="UTF-8" standalone="no"?>
<!DOCTYPE svg PUBLIC "-//W3C//DTD SVG 1.1//EN"
 "http://www.w3.org/Graphics/SVG/1.1/DTD/svg11.dtd">
<!-- Generated by graphviz version 2.43.0 (0)
 -->
<!-- Title: linko Pages: 1 -->
<svg width="927pt" height="998pt"
 viewBox="0.00 0.00 927.00 998.00" xmlns="http://www.w3.org/2000/svg" xmlns:xlink="http://www.w3.org/1999/xlink">
<g id="graph0" class="graph" transform="scale(1 1) rotate(0) translate(4 994)">
<title>linko</title>
<polygon fill="white" stroke="transparent" points="-4,4 -4,-994 923,-994 923,4 -4,4"/>
<g id="clust1" class="cluster">
<title>cluster_L</title>
<polygon fill="none" stroke="black" points="8,-813 8,-982 554,-982 554,-813 8,-813"/>
</g>
<!-- File: linko -->
<g id="node1" class="node">
<title>File: linko</title>
<g id="a_node1"><a xlink:title="linko">
<polygon fill="#f8f8f8" stroke="black" points="546,-974 16,-974 16,-821 546,-821 546,-974"/>
<text text-anchor="start" x="24" y="-957.2" font-family="Times,serif" font-size="16.00">File: linko</text>
<text text-anchor="start" x="24" y="-939.2" font-family="Times,serif" font-size="16.00">Build ID: 731c2d4d232c63a558f7fd79e854b61dfc974033</text>
<text text-anchor="start" x="24" y="-921.2" font-family="Times,serif" font-size="16.00">Type: inuse_space</text>
<text text-anchor="start" x="24" y="-903.2" font-family="Times,serif" font-size="16.00">Time: 2026&#45;04&#45;05 18:08:42 MSK</text>
<text text-anchor="start" x="24" y="-885.2" font-family="Times,serif" font-size="16.00">Duration: 30s, Total samples = 1.02MB </text>
<text text-anchor="start" x="24" y="-867.2" font-family="Times,serif" font-size="16.00">Showing nodes accounting for 1.02MB, 100% of 1.02MB total</text>
<text text-anchor="start" x="24" y="-830.2" font-family="Times,serif" font-size="16.00">See https://git.io/JfYMW for how to read the graph</text>
</a>
</g>
</g>
<!-- N1 -->
<g id="node1" class="node">
<title>N1</title>
<g id="a_node1"><a xlink:title="net/http.HandlerFunc.ServeHTTP (1.02MB)">
<polygon fill="#edd5d5" stroke="#b20000" points="662,-675 564,-675 564,-631 662,-631 662,-675"/>
<text text-anchor="middle" x="613" y="-664.6" font-family="Times,serif" font-size="8.00">http</text>
<text text-anchor="middle" x="613" y="-655.6" font-family="Times,serif" font-size="8.00">HandlerFunc</text>
<text text-anchor="middle" x="613" y="-646.6" font-family="Times,serif" font-size="8.00">ServeHTTP</text>
<text text-anchor="middle" x="613" y="-637.6" font-family="Times,serif" font-size="8.00">0 of 1.02MB (100%)</text>
</a>
</g>
</g>
<!-- N4 -->
<g id="node4" class="node">
<title>N4</title>
<g id="a_node4"><a xlink:title="main.(*server).handlerRedirect (1.02MB)">
<polygon fill="#edd5d5" stroke="#b20000" points="410,-566.5 312,-566.5 312,-522.5 410,-522.5 410,-566.5"/>
<text text-anchor="middle" x="361" y="-556.1" font-family="Times,serif" font-size="8.00">main</text>
<text text-anchor="middle" x="361" y="-547.1" font-family="Times,serif" font-size="8.00">(*server)</text>
<text text-anchor="middle" x="361" y="-538.1" font-family="Times,serif" font-size="8.00">handlerRedirect</text>
<text text-anchor="middle" x="361" y="-529.1" font-family="Times,serif" font-size="8.00">0 of 1.02MB (100%)</text>
</a>
</g>
</g>
<!-- N1&#45;&gt;N4 -->
<g id="edge8" class="edge">
<title>N1&#45;&gt;N4</title>
<g id="a_edge8"><a xlink:title="net/http.HandlerFunc.ServeHTTP &#45;&gt; main.(*server).handlerRedirect (1.02MB)">
<path fill="none" stroke="#b20000" stroke-width="6" d="M563.68,-647.87C508.92,-642.45 424.83,-631.41 399,-613 386.31,-603.96 377.32,-589.27 371.29,-575.9"/>
<polygon fill="#b20000" stroke="#b20000" stroke-width="6" points="376.07,-573.74 367.4,-566.5 366.37,-577.75 376.07,-573.74"/>
</a>
</g>
<g id="a_edge8&#45;label"><a xlink:title="net/http.HandlerFunc.ServeHTTP &#45;&gt; main.(*server).handlerRedirect (1.02MB)">
<text text-anchor="middle" x="429.5" y="-601.8" font-family="Times,serif" font-size="14.00"> 1.02MB</text>
</a>
</g>
</g>
<!-- N5 -->
<g id="node5" class="node">
<title>N5</title>
<g id="a_node5"><a xlink:title="main.newServer.MetricsMiddleware.func4 (1.02MB)">
<polygon fill="#edd5d5" stroke="#b20000" points="557,-562.5 459,-562.5 459,-526.5 557,-526.5 557,-562.5"/>
<text text-anchor="middle" x="508" y="-551.6" font-family="Times,serif" font-size="8.00">MetricsMiddleware</text>
<text text-anchor="middle" x="508" y="-542.6" font-family="Times,serif" font-size="8.00">func4</text>
<text text-anchor="middle" x="508" y="-533.6" font-family="Times,serif" font-size="8.00">0 of 1.02MB (100%)</text>
</a>
</g>
</g>
<!-- N1&#45;&gt;N5 -->
<g id="edge9" class="edge">
<title>N1&#45;&gt;N5</title>
<g id="a_edge9"><a xlink:title="net/http.HandlerFunc.ServeHTTP &#45;&gt; main.newServer.MetricsMiddleware.func4 (1.02MB)">
<path fill="none" stroke="#b20000" stroke-width="6" d="M564,-645.27C526.68,-639.02 479.78,-628.36 468,-613 457.68,-599.53 466.87,-583.19 479.03,-569.96"/>
<polygon fill="#b20000" stroke="#b20000" stroke-width="6" points="483.05,-573.36 486.41,-562.58 475.62,-565.94 483.05,-573.36"/>
</a>
</g>
<g id="a_edge9&#45;label"><a xlink:title="net/http.HandlerFunc.ServeHTTP &#45;&gt; main.newServer.MetricsMiddleware.func4 (1.02MB)">
<text text-anchor="middle" x="498.5" y="-601.8" font-family="Times,serif" font-size="14.00"> 1.02MB</text>
</a>
</g>
</g>
<!-- N6 -->
<g id="node6" class="node">
<title>N6</title>
<g id="a_node6"><a xlink:title="main.newServer.newServer.requestLogger.func1.func3 (1.02MB)">
<polygon fill="#edd5d5" stroke="#b20000" points="683,-580 585,-580 585,-509 683,-509 683,-580"/>
<text text-anchor="middle" x="634" y="-569.6" font-family="Times,serif" font-size="8.00">main</text>
<text text-anchor="middle" x="634" y="-560.6" font-family="Times,serif" font-size="8.00">newServer</text>
<text text-anchor="middle" x="634" y="-551.6" font-family="Times,serif" font-size="8.00">newServer</text>
<text text-anchor="middle" x="634" y="-542.6" font-family="Times,serif" font-size="8.00">requestLogger</text>
<text text-anchor="middle" x="634" y="-533.6" font-family="Times,serif" font-size="8.00">func1</text>
<text text-anchor="middle" x="634" y="-524.6" font-family="Times,serif" font-size="8.00">func3</text>
<text text-anchor="middle" x="634" y="-515.6" font-family="Times,serif" font-size="8.00">0 of 1.02MB (100%)</text>
</a>
</g>
</g>
<!-- N1&#45;&gt;N6 -->
<g id="edge10" class="edge">
<title>N1&#45;&gt;N6</title>
<g id="a_edge10"><a xlink:title="net/http.HandlerFunc.ServeHTTP &#45;&gt; main.newServer.newServer.requestLogger.func1.func3 (1.02MB)">
<path fill="none" stroke="#b20000" stroke-width="6" d="M609.21,-630.76C608.08,-620.73 607.68,-608.64 610,-598 610.61,-595.2 611.38,-592.37 612.27,-589.55"/>
<polygon fill="#b20000" stroke="#b20000" stroke-width="6" points="617.24,-591.27 615.7,-580.08 607.36,-587.7 617.24,-591.27"/>
</a>
</g>
<g id="a_edge10&#45;label"><a xlink:title="net/http.HandlerFunc.ServeHTTP &#45;&gt; main.newServer.newServer.requestLogger.func1.func3 (1.02MB)">
<text text-anchor="middle" x="640.5" y="-601.8" font-family="Times,serif" font-size="14.00"> 1.02MB</text>
</a>
</g>
</g>
<!-- N7 -->
<g id="node7" class="node">
<title>N7</title>
<g id="a_node7"><a xlink:title="main.newServer.requestID.func2 (1.02MB)">
<polygon fill="#edd5d5" stroke="#b20000" points="825,-571 727,-571 727,-518 825,-518 825,-571"/>
<text text-anchor="middle" x="776" y="-560.6" font-family="Times,serif" font-size="8.00">main</text>
<text text-anchor="middle" x="776" y="-551.6" font-family="Times,serif" font-size="8.00">newServer</text>
<text text-anchor="middle" x="776" y="-542.6" font-family="Times,serif" font-size="8.00">requestID</text>
<text text-anchor="middle" x="776" y="-533.6" font-family="Times,serif" font-size="8.00">func2</text>
<text text-anchor="middle" x="776" y="-524.6" font-family="Times,serif" font-size="8.00">0 of 1.02MB (100%)</text>
</a>
</g>
</g>
<!-- N1&#45;&gt;N7 -->
<g id="edge11" class="edge">
<title>N1&#45;&gt;N7</title>
<g id="a_edge11"><a xlink:title="net/http.HandlerFunc.ServeHTTP &#45;&gt; main.newServer.requestID.func2 (1.02MB)">
<path fill="none" stroke="#b20000" stroke-width="6" d="M662.01,-646.91C688.52,-641.96 720.36,-632.21 743,-613 752.95,-604.56 760.16,-592.41 765.25,-580.74"/>
<polygon fill="#b20000" stroke="#b20000" stroke-width="6" points="770.25,-582.38 769.05,-571.15 760.49,-578.51 770.25,-582.38"/>
</a>
</g>
<g id="a_edge11&#45;label"><a xlink:title="net/http.HandlerFunc.ServeHTTP &#45;&gt; main.newServer.requestID.func2 (1.02MB)">
<text text-anchor="middle" x="785.5" y="-601.8" font-family="Times,serif" font-size="14.00"> 1.02MB</text>
</a>
</g>
</g>
<!-- N2 -->
<g id="node2" class="node">
<title>N2</title>
<g id="a_node2"><a xlink:title="internal/bytealg.MakeNoZero (1.02MB)">
<polygon fill="#edd5d5" stroke="#b20000" points="463.5,-173 258.5,-173 258.5,-87 463.5,-87 463.5,-173"/>
<text text-anchor="middle" x="361" y="-149.8" font-family="Times,serif" font-size="24.00">bytealg</text>
<text text-anchor="middle" x="361" y="-123.8" font-family="Times,serif" font-size="24.00">MakeNoZero</text>
<text text-anchor="middle" x="361" y="-97.8" font-family="Times,serif" font-size="24.00">1.02MB (100%)</text>
</a>
</g>
</g>
<!-- NN2_0 -->
<g id="NN2_0" class="node">
<title>NN2_0</title>
<g id="a_NN2_0"><a xlink:title="1.02MB">
<polygon fill="#f8f8f8" stroke="black" points="388,-36 338,-36 334,-32 334,0 384,0 388,-4 388,-36"/>
<polyline fill="none" stroke="black" points="384,-32 334,-32 "/>
<polyline fill="none" stroke="black" points="384,-32 384,0 "/>
<polyline fill="none" stroke="black" points="384,-32 388,-36 "/>
<text text-anchor="middle" x="361" y="-16.1" font-family="Times,serif" font-size="8.00">21.25kB</text>
</a>
</g>
</g>
<!-- N2&#45;&gt;NN2_0 -->
<g id="edge1" class="edge">
<title>N2&#45;&gt;NN2_0</title>
<g id="a_edge1"><a xlink:title="1.02MB">
<path fill="none" stroke="black" d="M361,-86.79C361,-73.2 361,-58.5 361,-46.28"/>
<polygon fill="black" stroke="black" points="364.5,-46.27 361,-36.27 357.5,-46.27 364.5,-46.27"/>
</a>
</g>
<g id="a_edge1&#45;label"><a xlink:title="1.02MB">
<text text-anchor="middle" x="391.5" y="-57.8" font-family="Times,serif" font-size="14.00"> 1.02MB</text>
</a>
</g>
</g>
<!-- N3 -->
<g id="node3" class="node">
<title>N3</title>
<g id="a_node3"><a xlink:title="net/http.(*conn).serve (1.02MB)">
<polygon fill="#edd5d5" stroke="#b20000" points="662,-919.5 564,-919.5 564,-875.5 662,-875.5 662,-919.5"/>
<text text-anchor="middle" x="613" y="-909.1" font-family="Times,serif" font-size="8.00">http</text>
<text text-anchor="middle" x="613" y="-900.1" font-family="Times,serif" font-size="8.00">(*conn)</text>
<text text-anchor="middle" x="613" y="-891.1" font-family="Times,serif" font-size="8.00">serve</text>
<text text-anchor="middle" x="613" y="-882.1" font-family="Times,serif" font-size="8.00">0 of 1.02MB (100%)</text>
</a>
</g>
</g>
<!-- N9 -->
<g id="node9" class="node">
<title>N9</title>
<g id="a_node9"><a xlink:title="net/http.serverHandler.ServeHTTP (1.02MB)">
<polygon fill="#edd5d5" stroke="#b20000" points="662,-770 564,-770 564,-726 662,-726 662,-770"/>
<text text-anchor="middle" x="613" y="-759.6" font-family="Times,serif" font-size="8.00">http</text>
<text text-anchor="middle" x="613" y="-750.6" font-family="Times,serif" font-size="8.00">serverHandler</text>
<text text-anchor="middle" x="613" y="-741.6" font-family="Times,serif" font-size="8.00">ServeHTTP</text>
<text text-anchor="middle" x="613" y="-732.6" font-family="Times,serif" font-size="8.00">0 of 1.02MB (100%)</text>
</a>
</g>
</g>
<!-- N3&#45;&gt;N9 -->
<g id="edge7" class="edge">
<title>N3&#45;&gt;N9</title>
<g id="a_edge7"><a xlink:title="net/http.(*conn).serve &#45;&gt; net/http.serverHandler.ServeHTTP (1.02MB)">
<path fill="none" stroke="#b20000" stroke-width="6" d="M613,-875.37C613,-850.5 613,-808.99 613,-780.37"/>
<polygon fill="#b20000" stroke="#b20000" stroke-width="6" points="618.25,-780.09 613,-770.09 607.75,-780.09 618.25,-780.09"/>
</a>
</g>
<g id="a_edge7&#45;label"><a xlink:title="net/http.(*conn).serve &#45;&gt; net/http.serverHandler.ServeHTTP (1.02MB)">
<text text-anchor="middle" x="643.5" y="-791.8" font-family="Times,serif" font-size="14.00"> 1.02MB</text>
</a>
</g>
</g>
<!-- N12 -->
<g id="node12" class="node">
<title>N12</title>
<g id="a_node12"><a xlink:title="strings.Repeat (1.02MB)">
<polygon fill="#edd5d5" stroke="#b20000" points="410,-454 312,-454 312,-418 410,-418 410,-454"/>
<text text-anchor="middle" x="361" y="-443.1" font-family="Times,serif" font-size="8.00">strings</text>
<text text-anchor="middle" x="361" y="-434.1" font-family="Times,serif" font-size="8.00">Repeat</text>
<text text-anchor="middle" x="361" y="-425.1" font-family="Times,serif" font-size="8.00">0 of 1.02MB (100%)</text>
</a>
</g>
</g>
<!-- N4&#45;&gt;N12 -->
<g id="edge2" class="edge">
<title>N4&#45;&gt;N12</title>
<g id="a_edge2"><a xlink:title="main.(*server).handlerRedirect &#45;&gt; strings.Repeat (1.02MB)">
<path fill="none" stroke="#b20000" stroke-width="6" d="M361,-522.46C361,-505.81 361,-482.45 361,-464.35"/>
<polygon fill="#b20000" stroke="#b20000" stroke-width="6" points="366.25,-464.14 361,-454.14 355.75,-464.14 366.25,-464.14"/>
</a>
</g>
<g id="a_edge2&#45;label"><a xlink:title="main.(*server).handlerRedirect &#45;&gt; strings.Repeat (1.02MB)">
<text text-anchor="middle" x="391.5" y="-479.8" font-family="Times,serif" font-size="14.00"> 1.02MB</text>
</a>
</g>
</g>
<!-- N5&#45;&gt;N1 -->
<g id="edge3" class="edge">
<title>N5&#45;&gt;N1</title>
<g id="a_edge3"><a xlink:title="main.newServer.MetricsMiddleware.func4 &#45;&gt; net/http.HandlerFunc.ServeHTTP (1.02MB)">
<path fill="none" stroke="#b20000" stroke-width="6" d="M514.02,-562.72C519.85,-577.46 529.9,-598.55 544,-613 548.35,-617.46 553.32,-621.56 558.56,-625.29"/>
<polygon fill="#b20000" stroke="#b20000" stroke-width="6" points="555.71,-629.71 566.95,-630.85 561.51,-620.95 555.71,-629.71"/>
</a>
</g>
<g id="a_edge3&#45;label"><a xlink:title="main.newServer.MetricsMiddleware.func4 &#45;&gt; net/http.HandlerFunc.ServeHTTP (1.02MB)">
<text text-anchor="middle" x="574.5" y="-601.8" font-family="Times,serif" font-size="14.00"> 1.02MB</text>
</a>
</g>
</g>
<!-- N6&#45;&gt;N1 -->
<g id="edge4" class="edge">
<title>N6&#45;&gt;N1</title>
<g id="a_edge4"><a xlink:title="main.newServer.newServer.requestLogger.func1.func3 &#45;&gt; net/http.HandlerFunc.ServeHTTP (1.02MB)">
<path fill="none" stroke="#b20000" stroke-width="6" d="M670.89,-580.21C677.67,-590.65 680.97,-602.2 675,-613 672.76,-617.05 669.9,-620.74 666.65,-624.09"/>
<polygon fill="#b20000" stroke="#b20000" stroke-width="6" points="662.99,-620.32 658.98,-630.88 669.95,-628.18 662.99,-620.32"/>
</a>
</g>
<g id="a_edge4&#45;label"><a xlink:title="main.newServer.newServer.requestLogger.func1.func3 &#45;&gt; net/http.HandlerFunc.ServeHTTP (1.02MB)">
<text text-anchor="middle" x="708.5" y="-601.8" font-family="Times,serif" font-size="14.00"> 1.02MB</text>
</a>
</g>
</g>
<!-- N8 -->
<g id="node8" class="node">
<title>N8</title>
<g id="a_node8"><a xlink:title="net/http.(*ServeMux).ServeHTTP (1.02MB)">
<polygon fill="#edd5d5" stroke="#b20000" points="871,-458 773,-458 773,-414 871,-414 871,-458"/>
<text text-anchor="middle" x="822" y="-447.6" font-family="Times,serif" font-size="8.00">http</text>
<text text-anchor="middle" x="822" y="-438.6" font-family="Times,serif" font-size="8.00">(*ServeMux)</text>
<text text-anchor="middle" x="822" y="-429.6" font-family="Times,serif" font-size="8.00">ServeHTTP</text>
<text text-anchor="middle" x="822" y="-420.6" font-family="Times,serif" font-size="8.00">0 of 1.02MB (100%)</text>
</a>
</g>
</g>
<!-- N7&#45;&gt;N8 -->
<g id="edge5" class="edge">
<title>N7&#45;&gt;N8</title>
<g id="a_edge5"><a xlink:title="main.newServer.requestID.func2 &#45;&gt; net/http.(*ServeMux).ServeHTTP (1.02MB)">
<path fill="none" stroke="#b20000" stroke-width="6" d="M776.25,-517.77C777.24,-504.72 779.81,-488.93 786,-476 787.61,-472.64 789.6,-469.38 791.82,-466.25"/>
<polygon fill="#b20000" stroke="#b20000" stroke-width="6" points="795.99,-469.45 798.12,-458.36 787.78,-462.9 795.99,-469.45"/>
</a>
</g>
<g id="a_edge5&#45;label"><a xlink:title="main.newServer.requestID.func2 &#45;&gt; net/http.(*ServeMux).ServeHTTP (1.02MB)">
<text text-anchor="middle" x="816.5" y="-479.8" font-family="Times,serif" font-size="14.00"> 1.02MB</text>
</a>
</g>
</g>
<!-- N8&#45;&gt;N1 -->
<g id="edge6" class="edge">
<title>N8&#45;&gt;N1</title>
<g id="a_edge6"><a xlink:title="net/http.(*ServeMux).ServeHTTP &#45;&gt; net/http.HandlerFunc.ServeHTTP (1.02MB)">
<path fill="none" stroke="#b20000" stroke-width="6" d="M838.64,-458.2C842.07,-463.7 845.19,-469.83 847,-476 864.45,-535.56 868.34,-574.08 820,-613 797.66,-630.99 724.95,-641.58 672.01,-647.08"/>
<polygon fill="#b20000" stroke="#b20000" stroke-width="6" points="671.46,-641.86 662.04,-648.08 672.51,-652.31 671.46,-641.86"/>
</a>
</g>
<g id="a_edge6&#45;label"><a xlink:title="net/http.(*ServeMux).ServeHTTP &#45;&gt; net/http.HandlerFunc.ServeHTTP (1.02MB)">
<text text-anchor="middle" x="888.5" y="-540.8" font-family="Times,serif" font-size="14.00"> 1.02MB</text>
</a>
</g>
</g>
<!-- N9&#45;&gt;N1 -->
<g id="edge12" class="edge">
<title>N9&#45;&gt;N1</title>
<g id="a_edge12"><a xlink:title="net/http.serverHandler.ServeHTTP &#45;&gt; net/http.HandlerFunc.ServeHTTP (1.02MB)">
<path fill="none" stroke="#b20000" stroke-width="6" d="M613,-725.9C613,-713.89 613,-698.62 613,-685.24"/>
<polygon fill="#b20000" stroke="#b20000" stroke-width="6" points="618.25,-685.02 613,-675.02 607.75,-685.02 618.25,-685.02"/>
</a>
</g>
<g id="a_edge12&#45;label"><a xlink:title="net/http.serverHandler.ServeHTTP &#45;&gt; net/http.HandlerFunc.ServeHTTP (1.02MB)">
<text text-anchor="middle" x="643.5" y="-696.8" font-family="Times,serif" font-size="14.00"> 1.02MB</text>
</a>
</g>
</g>
<!-- N10 -->
<g id="node10" class="node">
<title>N10</title>
<g id="a_node10"><a xlink:title="strings.(*Builder).Grow (1.02MB)">
<polygon fill="#edd5d5" stroke="#b20000" points="410,-363 312,-363 312,-319 410,-319 410,-363"/>
<text text-anchor="middle" x="361" y="-352.6" font-family="Times,serif" font-size="8.00">strings</text>
<text text-anchor="middle" x="361" y="-343.6" font-family="Times,serif" font-size="8.00">(*Builder)</text>
<text text-anchor="middle" x="361" y="-334.6" font-family="Times,serif" font-size="8.00">Grow</text>
<text text-anchor="middle" x="361" y="-325.6" font-family="Times,serif" font-size="8.00">0 of 1.02MB (100%)</text>
</a>
</g>
</g>
<!-- N11 -->
<g id="node11" class="node">
<title>N11</title>
<g id="a_node11"><a xlink:title="strings.(*Builder).grow (1.02MB)">
<polygon fill="#edd5d5" stroke="#b20000" points="410,-268 312,-268 312,-224 410,-224 410,-268"/>
<text text-anchor="middle" x="361" y="-257.6" font-family="Times,serif" font-size="8.00">strings</text>
<text text-anchor="middle" x="361" y="-248.6" font-family="Times,serif" font-size="8.00">(*Builder)</text>
<text text-anchor="middle" x="361" y="-239.6" font-family="Times,serif" font-size="8.00">grow</text>
<text text-anchor="middle" x="361" y="-230.6" font-family="Times,serif" font-size="8.00">0 of 1.02MB (100%)</text>
</a>
</g>
</g>
<!-- N10&#45;&gt;N11 -->
<g id="edge13" class="edge">
<title>N10&#45;&gt;N11</title>
<g id="a_edge13"><a xlink:title="strings.(*Builder).Grow &#45;&gt; strings.(*Builder).grow (1.02MB)">
<path fill="none" stroke="#b20000" stroke-width="6" d="M361,-318.9C361,-306.89 361,-291.62 361,-278.24"/>
<polygon fill="#b20000" stroke="#b20000" stroke-width="6" points="366.25,-278.02 361,-268.02 355.75,-278.02 366.25,-278.02"/>
</a>
</g>
<g id="a_edge13&#45;label"><a xlink:title="strings.(*Builder).Grow &#45;&gt; strings.(*Builder).grow (1.02MB)">
<text text-anchor="middle" x="391.5" y="-289.8" font-family="Times,serif" font-size="14.00"> 1.02MB</text>
</a>
</g>
</g>
<!-- N11&#45;&gt;N2 -->
<g id="edge14" class="edge">
<title>N11&#45;&gt;N2</title>
<g id="a_edge14"><a xlink:title="strings.(*Builder).grow &#45;&gt; internal/bytealg.MakeNoZero (1.02MB)">
<path fill="none" stroke="#b20000" stroke-width="6" d="M361,-223.82C361,-212.43 361,-197.81 361,-183.57"/>
<polygon fill="#b20000" stroke="#b20000" stroke-width="6" points="366.25,-183.32 361,-173.32 355.75,-183.32 366.25,-183.32"/>
</a>
</g>
<g id="a_edge14&#45;label"><a xlink:title="strings.(*Builder).grow &#45;&gt; internal/bytealg.MakeNoZero (1.02MB)">
<text text-anchor="middle" x="391.5" y="-194.8" font-family="Times,serif" font-size="14.00"> 1.02MB</text>
</a>
</g>
</g>
<!-- N12&#45;&gt;N10 -->
<g id="edge15" class="edge">
<title>N12&#45;&gt;N10</title>
<g id="a_edge15"><a xlink:title="strings.Repeat &#45;&gt; strings.(*Builder).Grow (1.02MB)">
<path fill="none" stroke="#b20000" stroke-width="6" d="M361,-417.94C361,-405.54 361,-388.38 361,-373.51"/>
<polygon fill="#b20000" stroke="#b20000" stroke-width="6" points="366.25,-373.19 361,-363.19 355.75,-373.19 366.25,-373.19"/>
</a>
</g>
<g id="a_edge15&#45;label"><a xlink:title="strings.Repeat &#45;&gt; strings.(*Builder).Grow (1.02MB)">
<text text-anchor="middle" x="391.5" y="-384.8" font-family="Times,serif" font-size="14.00"> 1.02MB</text>
</a>
</g>
</g>
</g>
</svg>
